<svg viewBox="0 0 1080 1080" xmlns="http://www.w3.org/2000/svg">
<path d="M346.1,754.9c0,0,89.4,53.4,14.9,135.3c-73.2,81.9-326.4,41-356.2-1.2C-23.7,845.5,261.8,706.5,346.1,754.9z" fill="#00579C"/>
<path d="M367.2,752.4c79.4-17.4,146.4,8.7,206,31c50.9,19.9,84.4,41,110.5,65.8c26.1,24.8,36,44.7,39.7,52.1c5,9.9,23.6,54.6,5,96.8c-1.2,2.5-5,12.4-12.4,19.9c-32.3,38.5-95.6,37.2-122.9,31c-105.5-22.3-184.9-74.5-234.6-119.1c-49.6-44.7-98-86.9-86.9-124.1C280.4,771.1,336.2,759.9,367.2,752.4z" fill="#008BE1"/>
<path d="M657.6,620.5c-50.7,42.5-88.7,106-98,191.5c-22.3,208.5,279.2,325.2,414.5,98c75-125,72.9-218.4,31.7-277.9C923.6,695.7,772.5,679.4,657.6,620.5z" fill="#FF7C00"/>
<path d="M1005.8,632.1c-67.1-97-237.8-104.1-348.2-11.6C772.5,679.4,923.6,695.7,1005.8,632.1z" fill="#FF6219"/>
<path d="M407,350.3c28.5,146.4,188.6,127.8,211,44.7c21.1-83.2-65.8-345-83.2-368.6C485.1-43.1,394.5,284.6,407,350.3z" fill="#FF6219"/>
<path d="M361,890.2c66.3-72.9,2.7-123.2-12-133.4c-30.9,7.7-70.2,20.3-77.3,49c-9.5,31.6,24,66.8,64.7,104.1C345.9,904.3,354.3,897.8,361,890.2z" fill="#0E4C5B"/>
<path d="M716,1018c7.4-7.4,11.2-17.4,12.4-19.9c18.6-42.2,0-86.9-5-96.8c-3.7-7.4-13.7-27.3-39.7-52.1c-26.1-24.8-59.6-45.9-110.5-65.8c-2.9-1.1-5.8-2.2-8.7-3.3c-2.1,10.2-3.8,20.8-5,31.8c-11.2,104.9,59.5,186.6,149.9,212.9C711.8,1022.8,713.9,1020.5,716,1018z" fill="#FF6219"/>
<path d="M797.9,263.5c0,0-98.1,11.6-180.7,48.3c4.7,34.1,5.8,63.7,0.8,83.3c-11.8,43.8-61.7,69.6-110.5,63c0.7,3.4,1.5,6.8,2.5,10.2c17.5,61.4,75.5,115.3,147.7,152.3c110.4-92.5,281.1-85.3,348.2,11.6c5-3.9,9.8-8,14.2-12.5C1144.2,495.5,1067.2,211.3,797.9,263.5z" fill="#FFB200"/>
<path d="M617.9,395c5-19.6,3.9-49.2-0.8-83.3c-67.1,29.8-124,76.1-109.7,146.3C556.3,464.7,606.2,438.8,617.9,395z" fill="#C95400"/>
</svg>
